<svg fill="#5f5f5f" xmlns:dc="http://purl.org/dc/elements/1.1/" xmlns:cc="http://creativecommons.org/ns#" xmlns:rdf="http://www.w3.org/1999/02/22-rdf-syntax-ns#" xmlns:svg="http://www.w3.org/2000/svg" xmlns="http://www.w3.org/2000/svg" xmlns:sodipodi="http://sodipodi.sourceforge.net/DTD/sodipodi-0.dtd" xmlns:inkscape="http://www.inkscape.org/namespaces/inkscape" viewBox="0 0 511.99998 639.999975" version="1.1" x="0px" y="0px"><g transform="translate(-131.14863,-166.91162)"><path style="opacity:1;fill:#5f5f5f;fill-opacity:1;fill-rule:evenodd;stroke:#000000;stroke-width:50.19509125;stroke-linejoin:miter;stroke-miterlimit:4;stroke-dasharray:none;stroke-opacity:0" d="m 387.13698,192.00915 a 52.405983,52.311179 0 0 0 -52.39081,52.31937 52.405983,52.311179 0 0 0 52.39081,52.31926 52.405983,52.311179 0 0 0 52.41409,-52.31926 52.405983,52.311179 0 0 0 -52.41409,-52.31937 z m 0,178.58313 a 52.405983,52.311179 0 0 0 -52.39081,52.31938 52.405983,52.311179 0 0 0 52.39081,52.31926 52.405983,52.311179 0 0 0 52.41409,-52.31926 52.405983,52.311179 0 0 0 -52.41409,-52.31938 z m 0,178.58313 a 52.405983,52.311179 0 0 0 -52.39081,52.31938 52.405983,52.311179 0 0 0 52.39081,52.31926 52.405983,52.311179 0 0 0 52.41409,-52.31926 52.405983,52.311179 0 0 0 -52.41409,-52.31938 z"/></g></svg>